<svg xmlns="http://www.w3.org/2000/svg" width="240" height="48" viewBox="0 0 240 48" role="img" aria-label="DreamLabs">
  <defs>
    <linearGradient id="g" x1="0" y1="0" x2="1" y2="1">
      <stop offset="0" stop-color="#0F62FE"/>
      <stop offset="1" stop-color="#FF7A18"/>
    </linearGradient>
  </defs>
  <g transform="translate(2 2)">
    <g>
      <path d="M20 2c-7.2 0-13 5.8-13 13 0 4.4 2.2 8.5 5.8 11l.2 6.8c0 .8.7 1.5 1.5 1.5h11c.8 0 1.5-.7 1.5-1.5l.2-6.8C30.8 23.5 33 19.4 33 15 33 7.8 27.2 2 20 2z" fill="url(#g)" opacity=".18"/>
      <path d="M20 2c-7.2 0-13 5.8-13 13 0 4.4 2.2 8.5 5.8 11l.2 6.8c0 .8.7 1.5 1.5 1.5h11c.8 0 1.5-.7 1.5-1.5l.2-6.8C30.8 23.5 33 19.4 33 15 33 7.8 27.2 2 20 2z" fill="none" stroke="#0B1220" stroke-width="1.5"/>
      <path d="M15 27h10" stroke="#0B1220" stroke-width="1.5" stroke-linecap="round"/>
      <path d="M15.5 31h9" stroke="#0B1220" stroke-width="1.5" stroke-linecap="round"/>
      <path d="M17 35h6" stroke="#0B1220" stroke-width="1.5" stroke-linecap="round"/>
      <path d="M20 6.5c-3.9 0-7 3.1-7 7" fill="none" stroke="#0F62FE" stroke-width="2.5" stroke-linecap="round"/>
    </g>
  </g>
  <text x="46" y="32" font-family="ui-sans-serif, system-ui, -apple-system, Segoe UI, Roboto, Helvetica, Arial" font-size="22" font-weight="800" fill="#0B1220">Dream</text>
  <text x="120" y="32" font-family="ui-sans-serif, system-ui, -apple-system, Segoe UI, Roboto, Helvetica, Arial" font-size="22" font-weight="800" fill="url(#g)">Labs</text>
</svg>